<?xml version="1.0" encoding="UTF-8"?><svg xmlns="http://www.w3.org/2000/svg" xmlns:xlink="http://www.w3.org/1999/xlink" contentScriptType="text/ecmascript" width="375" zoomAndPan="magnify" contentStyleType="text/css" viewBox="0 0 375 374.999991" height="374.999991" preserveAspectRatio="xMidYMid meet" version="1.0"><defs><clipPath id="clip-0"><path d="M 56.25 0 L 318.75 0 L 318.75 375 L 56.25 375 Z M 56.25 0 " clip-rule="nonzero"/></clipPath></defs><g clip-path="url(#clip-0)"><path fill="rgb(12.939453%, 15.689087%, 21.569824%)" d="M 187.5 0 C 115.03125 0 56.25 58.78125 56.25 131.25 C 56.25 229.6875 187.5 375 187.5 375 C 187.5 375 318.75 229.6875 318.75 131.25 C 318.75 58.78125 259.96875 0 187.5 0 Z M 187.5 178.125 C 161.625 178.125 140.625 157.125 140.625 131.25 C 140.625 105.375 161.625 84.375 187.5 84.375 C 213.375 84.375 234.375 105.375 234.375 131.25 C 234.375 157.125 213.375 178.125 187.5 178.125 Z M 187.5 178.125 " fill-opacity="1" fill-rule="nonzero"/></g><path fill="rgb(100%, 100%, 100%)" d="M 187.558594 17.441406 C 125.425781 17.441406 75.058594 67.8125 75.058594 129.941406 C 75.058594 192.074219 125.425781 242.441406 187.558594 242.441406 C 249.691406 242.441406 300.058594 192.074219 300.058594 129.941406 C 300.058594 67.8125 249.691406 17.441406 187.558594 17.441406 Z M 187.558594 17.441406 " fill-opacity="1" fill-rule="nonzero"/><path fill="rgb(12.159729%, 16.079712%, 21.569824%)" d="M 176.90625 195.9375 L 125.742188 195.9375 C 135.554688 160.441406 142.796875 113.015625 147.480469 53.660156 C 147.480469 52.707031 148.6875 51.277344 151.105469 49.375 C 153.519531 47.472656 155.570312 46.519531 157.25 46.519531 L 208.195312 46.519531 C 197.800781 90.800781 190.558594 138.15625 186.457031 188.582031 C 186.457031 189.535156 185.285156 191 182.941406 192.972656 C 180.601562 194.949219 178.589844 195.9375 176.90625 195.9375 Z M 235.640625 140.933594 C 236.734375 138.8125 238.820312 136.914062 241.894531 135.230469 C 244.96875 133.546875 247.789062 132.703125 250.351562 132.703125 C 246.761719 164.027344 244.164062 182.4375 242.558594 187.925781 C 241.898438 189.460938 240.582031 191.179688 238.605469 193.082031 C 236.628906 194.988281 235.019531 195.9375 233.777344 195.9375 L 191.503906 195.9375 C 200.214844 189.425781 208.414062 181.285156 216.097656 171.515625 C 223.78125 161.742188 230.296875 151.546875 235.640625 140.933594 Z M 235.640625 140.933594 " fill-opacity="1" fill-rule="nonzero"/></svg>